Coordinates
version=1
nRows=8
nColumns=36
inDegrees=yes

Units are S.I. units (second, meters, Newtons, ...)
If the header above contains a line with 'inDegrees', this indicates whether rotational values are in degrees (yes) or radians (no).

endheader
time	pelvis_tilt	pelvis_list	pelvis_rotation	pelvis_tx	pelvis_ty	pelvis_tz	hip_flexion_r	hip_adduction_r	hip_rotation_r	knee_angle_r	knee_angle_r_beta	ankle_angle_r	subtalar_angle_r	mtp_angle_r	hip_flexion_l	hip_adduction_l	hip_rotation_l	knee_angle_l	knee_angle_l_beta	ankle_angle_l	subtalar_angle_l	mtp_angle_l	lumbar_extension	lumbar_bending	lumbar_rotation	arm_flex_r	arm_add_r	arm_rot_r	elbow_flex_r	pro_sup_r	arm_flex_l	arm_add_l	arm_rot_l	elbow_flex_l	pro_sup_l
      2.47500000	    -13.75476372	     -2.42268112	      2.23448579	      0.21966930	      0.48608947	     -0.07174379	    108.47729736	    -17.93566794	     11.40388217	    125.08550247	      2.18315386	     33.48005146	     -2.38495126	     -7.49999987	    114.45017380	    -15.18409034	     12.43494137	    125.91078768	      2.19755781	     23.12552671	      1.39270199	     -7.49999987	    -34.15827825	      0.99566111	      3.11785322	    147.59075230	      1.47680687	     40.75088020	     69.36065651	     81.79799407	    140.10827354	      2.53126434	     28.24475904	     76.83179589	     65.43155998
      2.47916670	    -13.86307458	     -2.45309562	      2.23472817	      0.22428629	      0.49766407	     -0.07260795	    106.94044571	    -17.84837832	     10.78868739	    123.89073102	      2.16230117	     33.44745128	     -3.02983683	     -7.49999987	    112.72681870	    -15.12960073	     11.85398341	    124.73554060	      2.17704588	     23.69352518	      1.29231703	     -7.49999987	    -33.66913125	      0.94067886	      3.00142063	    147.91768109	      1.31605121	     40.49409299	     70.88874487	     81.80125872	    140.43952084	      2.33509826	     27.87559408	     78.28607729	     65.56841219
      2.48333330	    -13.80457251	     -2.40357338	      2.26034227	      0.22324787	      0.50169416	     -0.07241590	    105.63393974	    -17.73505966	     10.35848329	    122.96659778	      2.14617200	     33.34492329	     -4.19750515	     -7.49999987	    111.17003197	    -15.02346800	     11.29223871	    123.80011287	      2.16071958	     24.56612100	      1.42970061	     -7.49999987	    -33.27559592	      0.84247193	      2.90167123	    148.32531328	      1.22044392	     40.03536359	     72.24189232	     80.36196244	    140.89189093	      2.19184924	     27.48916750	     79.42587438	     65.43385838
      2.48750000	    -13.62586301	     -2.40004353	      2.29748498	      0.22443640	      0.50958653	     -0.07278867	    104.21529844	    -17.54804332	      9.91936492	    121.92544435	      2.12800045	     33.14532410	     -4.74652663	     -7.49999987	    109.60575598	    -14.85164032	     10.78360448	    122.93814140	      2.14567534	     24.83493179	      0.82725695	     -7.49999987	    -33.15569203	      0.95179942	      2.98595735	    149.17672468	      1.18974979	     39.87572847	     73.69000195	     84.89845457	    141.30821382	      1.89654045	     26.24370074	     80.52449904	     69.77540186
      2.49166670	    -13.35668362	     -2.38617572	      2.28729819	      0.22476439	      0.51547096	     -0.07214196	    102.74948666	    -17.30661893	      9.53843253	    120.95064889	      2.11098706	     33.47034596	     -4.43863877	     -7.49999987	    108.17894346	    -14.77575500	     10.51111955	    122.09765486	      2.13100609	     25.09699437	      0.54396657	     -7.49999987	    -33.15483375	      0.95413197	      2.67243285	    149.97428015	      1.26411977	     39.80328823	     75.01081049	     83.60289907	    142.17169391	      1.49648721	     25.68748253	     81.49043155	     69.29647104
      2.49583330	    -13.22051545	     -2.34469871	      2.23760346	      0.22780678	      0.52746233	     -0.07844763	    101.08426321	    -17.17173850	      9.23545625	    119.59953851	      2.08740573	     33.47027890	     -4.45375025	     -7.49999987	    106.53204902	    -14.67982694	      9.75468468	    121.03920540	      2.11253266	     25.39561752	      0.06478189	     -7.49999987	    -33.16881890	      1.09297253	      2.56672679	    151.05820196	      0.77273489	     40.50030667	     76.69401922	     81.60712916	    142.70198572	      0.90946548	     25.13982937	     83.18520372	     68.74838410
      2.50000000	    -12.99064626	     -2.25007390	      2.27946584	      0.22799156	      0.53494413	     -0.07507343	     99.46717567	    -17.11860283	      8.94080457	    118.38581013	      2.06622217	     33.42302443	     -4.43972211	     -7.49999987	    104.77023153	    -14.59252753	      9.09578186	    119.83945391	      2.09159304	     25.63583607	     -0.48892871	     -7.49999987	    -33.13422107	      1.06338288	      2.50627060	    151.82833933	      0.79363978	     40.54377640	     77.53563500	     82.04575461	    142.90816811	      0.70919824	     24.17270193	     84.33355379	     69.02877636
      2.50416670	    -12.73998817	     -2.25257745	      2.26152751	      0.22652988	      0.54017920	     -0.07487953	     98.16814664	    -16.97374052	      8.58081816	    117.40395702	      2.04908560	     33.36776925	     -4.73574326	     -7.49999987	    103.43509284	    -14.47304744	      8.73427808	    118.93891461	      2.07587567	     25.78668505	     -0.92806242	     -7.49999987	    -33.45775148	      1.14649110	      3.26549991	    154.42621598	      0.96559572	     41.37201365	     77.06636868	     87.98695823	    143.84139385	      0.67769772	     22.73417747	     85.13695842	     74.57267403
